<?xml version="1.0" encoding="UTF-8" standalone="no"?><svg xmlns="http://www.w3.org/2000/svg" xmlns:xlink="http://www.w3.org/1999/xlink" contentScriptType="application/ecmascript" contentStyleType="text/css" height="410px" preserveAspectRatio="none" style="width:482px;height:410px;" version="1.1" viewBox="0 0 482 410" width="482px" zoomAndPan="magnify"><defs><filter height="300%" id="f1ig5j4vmxo9qv" width="300%" x="-1" y="-1"><feGaussianBlur result="blurOut" stdDeviation="2.0"/><feColorMatrix in="blurOut" result="blurOut2" type="matrix" values="0 0 0 0 0 0 0 0 0 0 0 0 0 0 0 0 0 0 .4 0"/><feOffset dx="4.0" dy="4.0" in="blurOut2" result="blurOut3"/><feBlend in="SourceGraphic" in2="blurOut3" mode="normal"/></filter></defs><g><!--MD5=[6e24cbd34338354a19670a98562d5947]
class Atuendo--><rect fill="#FEFECE" filter="url(#f1ig5j4vmxo9qv)" height="99.2188" id="Atuendo" style="stroke: #A80036; stroke-width: 1.5;" width="82" x="28.5" y="8"/><ellipse cx="43.5" cy="24" fill="#ADD1B2" rx="11" ry="11" style="stroke: #A80036; stroke-width: 1.0;"/><path d="M45.8438,19.6719 C44.9063,19.2344 44.3125,19.0938 43.4375,19.0938 C40.8125,19.0938 38.8125,21.1719 38.8125,23.8906 L38.8125,25.0156 C38.8125,27.5938 40.9219,29.4844 43.8125,29.4844 C45.0313,29.4844 46.1875,29.1875 46.9375,28.6406 C47.5156,28.2344 47.8438,27.7813 47.8438,27.3906 C47.8438,26.9375 47.4531,26.5469 46.9844,26.5469 C46.7656,26.5469 46.5625,26.625 46.375,26.8125 C45.9219,27.2969 45.9219,27.2969 45.7344,27.3906 C45.3125,27.6563 44.625,27.7813 43.8594,27.7813 C41.8125,27.7813 40.5156,26.6875 40.5156,24.9844 L40.5156,23.8906 C40.5156,22.1094 41.7656,20.7969 43.5,20.7969 C44.0781,20.7969 44.6875,20.9531 45.1563,21.2031 C45.6406,21.4844 45.8125,21.7031 45.9063,22.1094 C45.9688,22.5156 46,22.6406 46.1406,22.7656 C46.2813,22.9063 46.5156,23.0156 46.7344,23.0156 C47,23.0156 47.2656,22.875 47.4375,22.6563 C47.5469,22.5 47.5781,22.3125 47.5781,21.8906 L47.5781,20.4688 C47.5781,20.0313 47.5625,19.9063 47.4688,19.75 C47.3125,19.4844 47.0313,19.3438 46.7344,19.3438 C46.4375,19.3438 46.2344,19.4375 46.0156,19.75 L45.8438,19.6719 Z "/><text fill="#000000" font-family="sans-serif" font-size="12" lengthAdjust="spacingAndGlyphs" textLength="50" x="57.5" y="28.1543">Atuendo</text><line style="stroke: #A80036; stroke-width: 1.5;" x1="29.5" x2="109.5" y1="40" y2="40"/><text fill="#000000" font-family="sans-serif" font-size="11" lengthAdjust="spacingAndGlyphs" textLength="46" x="34.5" y="54.2104">superior</text><text fill="#000000" font-family="sans-serif" font-size="11" lengthAdjust="spacingAndGlyphs" textLength="40" x="34.5" y="67.0151">inferior</text><text fill="#000000" font-family="sans-serif" font-size="11" lengthAdjust="spacingAndGlyphs" textLength="44" x="34.5" y="79.8198">calzado</text><text fill="#000000" font-family="sans-serif" font-size="11" lengthAdjust="spacingAndGlyphs" textLength="60" x="34.5" y="92.6245">accesorios</text><line style="stroke: #A80036; stroke-width: 1.5;" x1="29.5" x2="109.5" y1="99.2188" y2="99.2188"/><!--MD5=[e73183ae97ca62d81f0bf19921e7c95e]
class Prenda--><rect fill="#FEFECE" filter="url(#f1ig5j4vmxo9qv)" height="112.0234" id="Prenda" style="stroke: #A80036; stroke-width: 1.5;" width="127" x="6" y="167"/><ellipse cx="45.3" cy="183" fill="#ADD1B2" rx="11" ry="11" style="stroke: #A80036; stroke-width: 1.0;"/><path d="M47.6438,178.6719 C46.7063,178.2344 46.1125,178.0938 45.2375,178.0938 C42.6125,178.0938 40.6125,180.1719 40.6125,182.8906 L40.6125,184.0156 C40.6125,186.5938 42.7219,188.4844 45.6125,188.4844 C46.8313,188.4844 47.9875,188.1875 48.7375,187.6406 C49.3156,187.2344 49.6438,186.7813 49.6438,186.3906 C49.6438,185.9375 49.2531,185.5469 48.7844,185.5469 C48.5656,185.5469 48.3625,185.625 48.175,185.8125 C47.7219,186.2969 47.7219,186.2969 47.5344,186.3906 C47.1125,186.6563 46.425,186.7813 45.6594,186.7813 C43.6125,186.7813 42.3156,185.6875 42.3156,183.9844 L42.3156,182.8906 C42.3156,181.1094 43.5656,179.7969 45.3,179.7969 C45.8781,179.7969 46.4875,179.9531 46.9563,180.2031 C47.4406,180.4844 47.6125,180.7031 47.7063,181.1094 C47.7688,181.5156 47.8,181.6406 47.9406,181.7656 C48.0813,181.9063 48.3156,182.0156 48.5344,182.0156 C48.8,182.0156 49.0656,181.875 49.2375,181.6563 C49.3469,181.5 49.3781,181.3125 49.3781,180.8906 L49.3781,179.4688 C49.3781,179.0313 49.3625,178.9063 49.2688,178.75 C49.1125,178.4844 48.8313,178.3438 48.5344,178.3438 C48.2375,178.3438 48.0344,178.4375 47.8156,178.75 L47.6438,178.6719 Z "/><text fill="#000000" font-family="sans-serif" font-size="12" lengthAdjust="spacingAndGlyphs" textLength="41" x="64.7" y="187.1543">Prenda</text><line style="stroke: #A80036; stroke-width: 1.5;" x1="7" x2="132" y1="199" y2="199"/><text fill="#000000" font-family="sans-serif" font-size="11" lengthAdjust="spacingAndGlyphs" textLength="21" x="12" y="213.2104">tipo</text><text fill="#000000" font-family="sans-serif" font-size="11" lengthAdjust="spacingAndGlyphs" textLength="47" x="12" y="226.0151">material</text><text fill="#000000" font-family="sans-serif" font-size="11" lengthAdjust="spacingAndGlyphs" textLength="27" x="12" y="238.8198">color</text><text fill="#000000" font-family="sans-serif" font-size="11" lengthAdjust="spacingAndGlyphs" textLength="91" x="12" y="251.6245">colorSecundario</text><text fill="#000000" font-family="sans-serif" font-size="11" lengthAdjust="spacingAndGlyphs" textLength="115" x="12" y="264.4292">temperaturaMaxima</text><line style="stroke: #A80036; stroke-width: 1.5;" x1="7" x2="132" y1="271.0234" y2="271.0234"/><!--MD5=[3745fdd22a0e66a0d468b66995ac78bf]
class AccuWeatherAPI--><rect fill="#FEFECE" filter="url(#f1ig5j4vmxo9qv)" height="60.8047" id="AccuWeatherAPI" style="stroke: #A80036; stroke-width: 1.5;" width="129" x="201" y="339"/><ellipse cx="216" cy="355" fill="#ADD1B2" rx="11" ry="11" style="stroke: #A80036; stroke-width: 1.0;"/><path d="M218.3438,350.6719 C217.4063,350.2344 216.8125,350.0938 215.9375,350.0938 C213.3125,350.0938 211.3125,352.1719 211.3125,354.8906 L211.3125,356.0156 C211.3125,358.5938 213.4219,360.4844 216.3125,360.4844 C217.5313,360.4844 218.6875,360.1875 219.4375,359.6406 C220.0156,359.2344 220.3438,358.7813 220.3438,358.3906 C220.3438,357.9375 219.9531,357.5469 219.4844,357.5469 C219.2656,357.5469 219.0625,357.625 218.875,357.8125 C218.4219,358.2969 218.4219,358.2969 218.2344,358.3906 C217.8125,358.6563 217.125,358.7813 216.3594,358.7813 C214.3125,358.7813 213.0156,357.6875 213.0156,355.9844 L213.0156,354.8906 C213.0156,353.1094 214.2656,351.7969 216,351.7969 C216.5781,351.7969 217.1875,351.9531 217.6563,352.2031 C218.1406,352.4844 218.3125,352.7031 218.4063,353.1094 C218.4688,353.5156 218.5,353.6406 218.6406,353.7656 C218.7813,353.9063 219.0156,354.0156 219.2344,354.0156 C219.5,354.0156 219.7656,353.875 219.9375,353.6563 C220.0469,353.5 220.0781,353.3125 220.0781,352.8906 L220.0781,351.4688 C220.0781,351.0313 220.0625,350.9063 219.9688,350.75 C219.8125,350.4844 219.5313,350.3438 219.2344,350.3438 C218.9375,350.3438 218.7344,350.4375 218.5156,350.75 L218.3438,350.6719 Z "/><text fill="#000000" font-family="sans-serif" font-size="12" lengthAdjust="spacingAndGlyphs" textLength="97" x="230" y="359.1543">AccuWeatherAPI</text><line style="stroke: #A80036; stroke-width: 1.5;" x1="202" x2="329" y1="371" y2="371"/><line style="stroke: #A80036; stroke-width: 1.5;" x1="202" x2="329" y1="379" y2="379"/><text fill="#000000" font-family="sans-serif" font-size="11" lengthAdjust="spacingAndGlyphs" textLength="76" x="207" y="393.2104">getWeather()</text><!--MD5=[ec0e205da147a72fbc9fb1afaf8d7312]
class Clima--><rect fill="#FEFECE" filter="url(#f1ig5j4vmxo9qv)" height="86.4141" id="Clima" style="stroke: #A80036; stroke-width: 1.5;" width="114" x="357.5" y="14.5"/><ellipse cx="395" cy="30.5" fill="#ADD1B2" rx="11" ry="11" style="stroke: #A80036; stroke-width: 1.0;"/><path d="M397.3438,26.1719 C396.4063,25.7344 395.8125,25.5938 394.9375,25.5938 C392.3125,25.5938 390.3125,27.6719 390.3125,30.3906 L390.3125,31.5156 C390.3125,34.0938 392.4219,35.9844 395.3125,35.9844 C396.5313,35.9844 397.6875,35.6875 398.4375,35.1406 C399.0156,34.7344 399.3438,34.2813 399.3438,33.8906 C399.3438,33.4375 398.9531,33.0469 398.4844,33.0469 C398.2656,33.0469 398.0625,33.125 397.875,33.3125 C397.4219,33.7969 397.4219,33.7969 397.2344,33.8906 C396.8125,34.1563 396.125,34.2813 395.3594,34.2813 C393.3125,34.2813 392.0156,33.1875 392.0156,31.4844 L392.0156,30.3906 C392.0156,28.6094 393.2656,27.2969 395,27.2969 C395.5781,27.2969 396.1875,27.4531 396.6563,27.7031 C397.1406,27.9844 397.3125,28.2031 397.4063,28.6094 C397.4688,29.0156 397.5,29.1406 397.6406,29.2656 C397.7813,29.4063 398.0156,29.5156 398.2344,29.5156 C398.5,29.5156 398.7656,29.375 398.9375,29.1563 C399.0469,29 399.0781,28.8125 399.0781,28.3906 L399.0781,26.9688 C399.0781,26.5313 399.0625,26.4063 398.9688,26.25 C398.8125,25.9844 398.5313,25.8438 398.2344,25.8438 C397.9375,25.8438 397.7344,25.9375 397.5156,26.25 L397.3438,26.1719 Z "/><text fill="#000000" font-family="sans-serif" font-size="12" lengthAdjust="spacingAndGlyphs" textLength="32" x="414" y="34.6543">Clima</text><line style="stroke: #A80036; stroke-width: 1.5;" x1="358.5" x2="470.5" y1="46.5" y2="46.5"/><text fill="#000000" font-family="sans-serif" font-size="11" lengthAdjust="spacingAndGlyphs" textLength="71" x="363.5" y="60.7104">temperatura</text><text fill="#000000" font-family="sans-serif" font-size="11" lengthAdjust="spacingAndGlyphs" textLength="102" x="363.5" y="73.5151">probabilidadLluvia</text><text fill="#000000" font-family="sans-serif" font-size="11" lengthAdjust="spacingAndGlyphs" textLength="9" x="363.5" y="86.3198">...</text><line style="stroke: #A80036; stroke-width: 1.5;" x1="358.5" x2="470.5" y1="92.9141" y2="92.9141"/><!--MD5=[84129e4728ac12c1b84d020e1856fc95]
class ClimaProvider--><rect fill="#FEFECE" filter="url(#f1ig5j4vmxo9qv)" height="60.8047" id="ClimaProvider" style="stroke: #A80036; stroke-width: 1.5;" width="114" x="208.5" y="27"/><ellipse cx="223.5" cy="43" fill="#B4A7E5" rx="11" ry="11" style="stroke: #A80036; stroke-width: 1.0;"/><path d="M224.4531,39.7813 L226.1719,39.7813 C226.5625,39.7813 226.75,39.75 226.875,39.6719 C227.1406,39.5156 227.2813,39.2344 227.2813,38.9375 C227.2813,38.6719 227.1719,38.4063 226.9375,38.2344 C226.7656,38.125 226.625,38.0938 226.1719,38.0938 L221.0313,38.0938 C220.5938,38.0938 220.4688,38.1094 220.3125,38.2031 C220.0625,38.3594 219.9063,38.6563 219.9063,38.9375 C219.9063,39.2188 220.0469,39.4688 220.2656,39.6406 C220.4219,39.75 220.6094,39.7813 221.0313,39.7813 L222.75,39.7813 L222.75,46.2969 L221.0313,46.2969 C220.5938,46.2969 220.4688,46.3125 220.3125,46.4219 C220.0625,46.5781 219.9063,46.8594 219.9063,47.1563 C219.9063,47.4063 220.0469,47.6719 220.2656,47.8281 C220.4219,47.9531 220.625,48 221.0313,48 L226.1719,48 C226.9219,48 227.2813,47.7188 227.2813,47.1563 C227.2813,46.875 227.1719,46.625 226.9375,46.4531 C226.7656,46.3281 226.625,46.2969 226.1719,46.2969 L224.4531,46.2969 L224.4531,39.7813 Z "/><text fill="#000000" font-family="sans-serif" font-size="12" font-style="italic" lengthAdjust="spacingAndGlyphs" textLength="82" x="237.5" y="47.1543">ClimaProvider</text><line style="stroke: #A80036; stroke-width: 1.5;" x1="209.5" x2="321.5" y1="59" y2="59"/><line style="stroke: #A80036; stroke-width: 1.5;" x1="209.5" x2="321.5" y1="67" y2="67"/><text fill="#000000" font-family="sans-serif" font-size="11" lengthAdjust="spacingAndGlyphs" textLength="59" x="214.5" y="81.2104">getClima()</text><!--MD5=[43510c689ee9bfc4b341395ee754c00d]
class ClimaProviderAccuWeather--><rect fill="#FEFECE" filter="url(#f1ig5j4vmxo9qv)" height="73.6094" id="ClimaProviderAccuWeather" style="stroke: #A80036; stroke-width: 1.5;" width="194" x="168.5" y="186"/><ellipse cx="183.5" cy="202" fill="#ADD1B2" rx="11" ry="11" style="stroke: #A80036; stroke-width: 1.0;"/><path d="M185.8438,197.6719 C184.9063,197.2344 184.3125,197.0938 183.4375,197.0938 C180.8125,197.0938 178.8125,199.1719 178.8125,201.8906 L178.8125,203.0156 C178.8125,205.5938 180.9219,207.4844 183.8125,207.4844 C185.0313,207.4844 186.1875,207.1875 186.9375,206.6406 C187.5156,206.2344 187.8438,205.7813 187.8438,205.3906 C187.8438,204.9375 187.4531,204.5469 186.9844,204.5469 C186.7656,204.5469 186.5625,204.625 186.375,204.8125 C185.9219,205.2969 185.9219,205.2969 185.7344,205.3906 C185.3125,205.6563 184.625,205.7813 183.8594,205.7813 C181.8125,205.7813 180.5156,204.6875 180.5156,202.9844 L180.5156,201.8906 C180.5156,200.1094 181.7656,198.7969 183.5,198.7969 C184.0781,198.7969 184.6875,198.9531 185.1563,199.2031 C185.6406,199.4844 185.8125,199.7031 185.9063,200.1094 C185.9688,200.5156 186,200.6406 186.1406,200.7656 C186.2813,200.9063 186.5156,201.0156 186.7344,201.0156 C187,201.0156 187.2656,200.875 187.4375,200.6563 C187.5469,200.5 187.5781,200.3125 187.5781,199.8906 L187.5781,198.4688 C187.5781,198.0313 187.5625,197.9063 187.4688,197.75 C187.3125,197.4844 187.0313,197.3438 186.7344,197.3438 C186.4375,197.3438 186.2344,197.4375 186.0156,197.75 L185.8438,197.6719 Z "/><text fill="#000000" font-family="sans-serif" font-size="12" lengthAdjust="spacingAndGlyphs" textLength="162" x="197.5" y="206.1543">ClimaProviderAccuWeather</text><line style="stroke: #A80036; stroke-width: 1.5;" x1="169.5" x2="361.5" y1="218" y2="218"/><text fill="#000000" font-family="sans-serif" font-size="11" lengthAdjust="spacingAndGlyphs" textLength="49" x="174.5" y="232.2104">apiClima</text><line style="stroke: #A80036; stroke-width: 1.5;" x1="169.5" x2="361.5" y1="238.8047" y2="238.8047"/><text fill="#000000" font-family="sans-serif" font-size="11" lengthAdjust="spacingAndGlyphs" textLength="59" x="174.5" y="253.0151">getClima()</text><!--MD5=[37ff9ae1b59d452248c686c8a4a7bcb1]
link Atuendo to Prenda--><path d="M69.5,107.113 C69.5,124.321 69.5,143.888 69.5,161.934 " fill="none" id="Atuendo-&gt;Prenda" style="stroke: #A80036; stroke-width: 1.0;"/><polygon fill="#A80036" points="69.5,166.981,73.5,157.981,69.5,161.981,65.5,157.981,69.5,166.981" style="stroke: #A80036; stroke-width: 1.0;"/><text fill="#000000" font-family="sans-serif" font-size="13" lengthAdjust="spacingAndGlyphs" textLength="7" x="62.0516" y="155.9165">*</text><!--MD5=[85805b06bc69b6e915b916118e9659d3]
reverse link ClimaProvider to ClimaProviderAccuWeather--><path d="M265.5,108.149 C265.5,133.156 265.5,162.928 265.5,185.754 " fill="none" id="ClimaProvider&lt;-ClimaProviderAccuWeather" style="stroke: #A80036; stroke-width: 1.0; stroke-dasharray: 7.0,7.0;"/><polygon fill="none" points="258.5,108.109,265.5,88.109,272.5,108.109,258.5,108.109" style="stroke: #A80036; stroke-width: 1.0;"/><!--MD5=[3bedbe391c72aa039035c8f33faedc2e]
link ClimaProviderAccuWeather to AccuWeatherAPI--><path d="M265.5,260.091 C265.5,282.534 265.5,311.2483 265.5,333.4863 " fill="none" id="ClimaProviderAccuWeather-&gt;AccuWeatherAPI" style="stroke: #A80036; stroke-width: 1.0;"/><polygon fill="#A80036" points="265.5,338.7033,269.5,329.7033,265.5,333.7033,261.5,329.7033,265.5,338.7033" style="stroke: #A80036; stroke-width: 1.0;"/><!--MD5=[1a831fc8deb76f82e67d05046677389d]
@startuml
class Atuendo {
  superior
  inferior
  calzado
  accesorios
}

class Prenda {
  tipo
  material
  color
  colorSecundario
  temperaturaMaxima
}

class AccuWeatherAPI {
  getWeather()
}

class Clima {
  temperatura
  probabilidadLluvia
  ...
}

interface ClimaProvider {
  getClima()
}

class ClimaProviderAccuWeather {
  apiClima
  getClima()
}

Atuendo - -> "*"Prenda
ClimaProvider <|.. ClimaProviderAccuWeather
ClimaProviderAccuWeather - -> AccuWeatherAPI
@enduml

PlantUML version 1.2020.10(Sun May 17 09:48:49 UTC 2020)
(GPL source distribution)
Java Runtime: Java(TM) SE Runtime Environment
JVM: Java HotSpot(TM) 64-Bit Server VM
Operating System: Linux
Default Encoding: UTF-8
Language: en
Country: US
--></g></svg>