<?xml version="1.0" encoding="UTF-8" standalone="no"?><svg xmlns="http://www.w3.org/2000/svg" xmlns:xlink="http://www.w3.org/1999/xlink" contentScriptType="application/ecmascript" contentStyleType="text/css" height="557px" preserveAspectRatio="none" style="width:444px;height:557px;" version="1.1" viewBox="0 0 444 557" width="444px" zoomAndPan="magnify"><defs><filter height="300%" id="f1f6usix6pq4cv" width="300%" x="-1" y="-1"><feGaussianBlur result="blurOut" stdDeviation="2.0"/><feColorMatrix in="blurOut" result="blurOut2" type="matrix" values="0 0 0 0 0 0 0 0 0 0 0 0 0 0 0 0 0 0 .4 0"/><feOffset dx="4.0" dy="4.0" in="blurOut2" result="blurOut3"/><feBlend in="SourceGraphic" in2="blurOut3" mode="normal"/></filter></defs><g><!--MD5=[e73183ae97ca62d81f0bf19921e7c95e]
class Prenda--><rect fill="#FEFECE" filter="url(#f1f6usix6pq4cv)" height="112.0234" id="Prenda" style="stroke: #A80036; stroke-width: 1.5;" width="127" x="150" y="434"/><ellipse cx="189.3" cy="450" fill="#ADD1B2" rx="11" ry="11" style="stroke: #A80036; stroke-width: 1.0;"/><path d="M191.6438,445.6719 C190.7063,445.2344 190.1125,445.0938 189.2375,445.0938 C186.6125,445.0938 184.6125,447.1719 184.6125,449.8906 L184.6125,451.0156 C184.6125,453.5938 186.7219,455.4844 189.6125,455.4844 C190.8313,455.4844 191.9875,455.1875 192.7375,454.6406 C193.3156,454.2344 193.6438,453.7813 193.6438,453.3906 C193.6438,452.9375 193.2531,452.5469 192.7844,452.5469 C192.5656,452.5469 192.3625,452.625 192.175,452.8125 C191.7219,453.2969 191.7219,453.2969 191.5344,453.3906 C191.1125,453.6563 190.425,453.7813 189.6594,453.7813 C187.6125,453.7813 186.3156,452.6875 186.3156,450.9844 L186.3156,449.8906 C186.3156,448.1094 187.5656,446.7969 189.3,446.7969 C189.8781,446.7969 190.4875,446.9531 190.9563,447.2031 C191.4406,447.4844 191.6125,447.7031 191.7063,448.1094 C191.7688,448.5156 191.8,448.6406 191.9406,448.7656 C192.0813,448.9063 192.3156,449.0156 192.5344,449.0156 C192.8,449.0156 193.0656,448.875 193.2375,448.6563 C193.3469,448.5 193.3781,448.3125 193.3781,447.8906 L193.3781,446.4688 C193.3781,446.0313 193.3625,445.9063 193.2688,445.75 C193.1125,445.4844 192.8313,445.3438 192.5344,445.3438 C192.2375,445.3438 192.0344,445.4375 191.8156,445.75 L191.6438,445.6719 Z "/><text fill="#000000" font-family="sans-serif" font-size="12" lengthAdjust="spacingAndGlyphs" textLength="41" x="208.7" y="454.1543">Prenda</text><line style="stroke: #A80036; stroke-width: 1.5;" x1="151" x2="276" y1="466" y2="466"/><text fill="#000000" font-family="sans-serif" font-size="11" lengthAdjust="spacingAndGlyphs" textLength="21" x="156" y="480.2104">tipo</text><text fill="#000000" font-family="sans-serif" font-size="11" lengthAdjust="spacingAndGlyphs" textLength="47" x="156" y="493.0151">material</text><text fill="#000000" font-family="sans-serif" font-size="11" lengthAdjust="spacingAndGlyphs" textLength="27" x="156" y="505.8198">color</text><text fill="#000000" font-family="sans-serif" font-size="11" lengthAdjust="spacingAndGlyphs" textLength="91" x="156" y="518.6245">colorSecundario</text><text fill="#000000" font-family="sans-serif" font-size="11" lengthAdjust="spacingAndGlyphs" textLength="115" x="156" y="531.4292">temperaturaMaxima</text><line style="stroke: #A80036; stroke-width: 1.5;" x1="151" x2="276" y1="538.0234" y2="538.0234"/><!--MD5=[35a64b983c79880384a2fd9b61f0c24b]
class Usuario--><rect fill="#FEFECE" filter="url(#f1f6usix6pq4cv)" height="60.8047" id="Usuario" style="stroke: #A80036; stroke-width: 1.5;" width="86" x="170.5" y="173"/><ellipse cx="189.1" cy="189" fill="#ADD1B2" rx="11" ry="11" style="stroke: #A80036; stroke-width: 1.0;"/><path d="M191.4438,184.6719 C190.5063,184.2344 189.9125,184.0938 189.0375,184.0938 C186.4125,184.0938 184.4125,186.1719 184.4125,188.8906 L184.4125,190.0156 C184.4125,192.5938 186.5219,194.4844 189.4125,194.4844 C190.6313,194.4844 191.7875,194.1875 192.5375,193.6406 C193.1156,193.2344 193.4438,192.7813 193.4438,192.3906 C193.4438,191.9375 193.0531,191.5469 192.5844,191.5469 C192.3656,191.5469 192.1625,191.625 191.975,191.8125 C191.5219,192.2969 191.5219,192.2969 191.3344,192.3906 C190.9125,192.6563 190.225,192.7813 189.4594,192.7813 C187.4125,192.7813 186.1156,191.6875 186.1156,189.9844 L186.1156,188.8906 C186.1156,187.1094 187.3656,185.7969 189.1,185.7969 C189.6781,185.7969 190.2875,185.9531 190.7563,186.2031 C191.2406,186.4844 191.4125,186.7031 191.5063,187.1094 C191.5688,187.5156 191.6,187.6406 191.7406,187.7656 C191.8813,187.9063 192.1156,188.0156 192.3344,188.0156 C192.6,188.0156 192.8656,187.875 193.0375,187.6563 C193.1469,187.5 193.1781,187.3125 193.1781,186.8906 L193.1781,185.4688 C193.1781,185.0313 193.1625,184.9063 193.0688,184.75 C192.9125,184.4844 192.6313,184.3438 192.3344,184.3438 C192.0375,184.3438 191.8344,184.4375 191.6156,184.75 L191.4438,184.6719 Z "/><text fill="#000000" font-family="sans-serif" font-size="12" lengthAdjust="spacingAndGlyphs" textLength="46" x="203.9" y="193.1543">Usuario</text><line style="stroke: #A80036; stroke-width: 1.5;" x1="171.5" x2="255.5" y1="205" y2="205"/><text fill="#000000" font-family="sans-serif" font-size="11" lengthAdjust="spacingAndGlyphs" textLength="74" x="176.5" y="219.2104">guardarropas</text><line style="stroke: #A80036; stroke-width: 1.5;" x1="171.5" x2="255.5" y1="225.8047" y2="225.8047"/><!--MD5=[0e3c4a6dc3af1ce20c2cde9cbf1d83b0]
class Guardarropas--><rect fill="#FEFECE" filter="url(#f1f6usix6pq4cv)" height="60.8047" id="Guardarropas" style="stroke: #A80036; stroke-width: 1.5;" width="115" x="156" y="313"/><ellipse cx="171" cy="329" fill="#ADD1B2" rx="11" ry="11" style="stroke: #A80036; stroke-width: 1.0;"/><path d="M173.3438,324.6719 C172.4063,324.2344 171.8125,324.0938 170.9375,324.0938 C168.3125,324.0938 166.3125,326.1719 166.3125,328.8906 L166.3125,330.0156 C166.3125,332.5938 168.4219,334.4844 171.3125,334.4844 C172.5313,334.4844 173.6875,334.1875 174.4375,333.6406 C175.0156,333.2344 175.3438,332.7813 175.3438,332.3906 C175.3438,331.9375 174.9531,331.5469 174.4844,331.5469 C174.2656,331.5469 174.0625,331.625 173.875,331.8125 C173.4219,332.2969 173.4219,332.2969 173.2344,332.3906 C172.8125,332.6563 172.125,332.7813 171.3594,332.7813 C169.3125,332.7813 168.0156,331.6875 168.0156,329.9844 L168.0156,328.8906 C168.0156,327.1094 169.2656,325.7969 171,325.7969 C171.5781,325.7969 172.1875,325.9531 172.6563,326.2031 C173.1406,326.4844 173.3125,326.7031 173.4063,327.1094 C173.4688,327.5156 173.5,327.6406 173.6406,327.7656 C173.7813,327.9063 174.0156,328.0156 174.2344,328.0156 C174.5,328.0156 174.7656,327.875 174.9375,327.6563 C175.0469,327.5 175.0781,327.3125 175.0781,326.8906 L175.0781,325.4688 C175.0781,325.0313 175.0625,324.9063 174.9688,324.75 C174.8125,324.4844 174.5313,324.3438 174.2344,324.3438 C173.9375,324.3438 173.7344,324.4375 173.5156,324.75 L173.3438,324.6719 Z "/><text fill="#000000" font-family="sans-serif" font-size="12" lengthAdjust="spacingAndGlyphs" textLength="83" x="185" y="333.1543">Guardarropas</text><line style="stroke: #A80036; stroke-width: 1.5;" x1="157" x2="270" y1="345" y2="345"/><text fill="#000000" font-family="sans-serif" font-size="11" lengthAdjust="spacingAndGlyphs" textLength="46" x="162" y="359.2104">prendas</text><line style="stroke: #A80036; stroke-width: 1.5;" x1="157" x2="270" y1="365.8047" y2="365.8047"/><!--MD5=[757594a2f4ee90287cd1df29e0c4eaaa]
class Propuesta--><rect fill="#FEFECE" filter="url(#f1f6usix6pq4cv)" height="86.4141" id="Propuesta" style="stroke: #A80036; stroke-width: 1.5;" width="129" x="152" y="8"/><ellipse cx="183.65" cy="24" fill="#B4A7E5" rx="11" ry="11" style="stroke: #A80036; stroke-width: 1.0;"/><path d="M184.6031,20.7813 L186.3219,20.7813 C186.7125,20.7813 186.9,20.75 187.025,20.6719 C187.2906,20.5156 187.4313,20.2344 187.4313,19.9375 C187.4313,19.6719 187.3219,19.4063 187.0875,19.2344 C186.9156,19.125 186.775,19.0938 186.3219,19.0938 L181.1813,19.0938 C180.7438,19.0938 180.6188,19.1094 180.4625,19.2031 C180.2125,19.3594 180.0563,19.6563 180.0563,19.9375 C180.0563,20.2188 180.1969,20.4688 180.4156,20.6406 C180.5719,20.75 180.7594,20.7813 181.1813,20.7813 L182.9,20.7813 L182.9,27.2969 L181.1813,27.2969 C180.7438,27.2969 180.6188,27.3125 180.4625,27.4219 C180.2125,27.5781 180.0563,27.8594 180.0563,28.1563 C180.0563,28.4063 180.1969,28.6719 180.4156,28.8281 C180.5719,28.9531 180.775,29 181.1813,29 L186.3219,29 C187.0719,29 187.4313,28.7188 187.4313,28.1563 C187.4313,27.875 187.3219,27.625 187.0875,27.4531 C186.9156,27.3281 186.775,27.2969 186.3219,27.2969 L184.6031,27.2969 L184.6031,20.7813 Z "/><text fill="#000000" font-family="sans-serif" font-size="12" font-style="italic" lengthAdjust="spacingAndGlyphs" textLength="60" x="201.35" y="28.1543">Propuesta</text><line style="stroke: #A80036; stroke-width: 1.5;" x1="153" x2="280" y1="40" y2="40"/><line style="stroke: #A80036; stroke-width: 1.5;" x1="153" x2="280" y1="48" y2="48"/><text fill="#000000" font-family="sans-serif" font-size="11" lengthAdjust="spacingAndGlyphs" textLength="107" x="158" y="62.2104">aceptarPropuesta()</text><text fill="#000000" font-family="sans-serif" font-size="11" lengthAdjust="spacingAndGlyphs" textLength="114" x="158" y="75.0151">rechazarPropuesta()</text><text fill="#000000" font-family="sans-serif" font-size="11" lengthAdjust="spacingAndGlyphs" textLength="117" x="158" y="87.8198">deshacerPropuesta()</text><!--MD5=[1937b8e3d39ba0763dad486d108cdf2b]
class PropuestaAgregar--><rect fill="#FEFECE" filter="url(#f1f6usix6pq4cv)" height="99.2188" id="PropuestaAgregar" style="stroke: #A80036; stroke-width: 1.5;" width="141" x="292" y="154"/><ellipse cx="307" cy="170" fill="#ADD1B2" rx="11" ry="11" style="stroke: #A80036; stroke-width: 1.0;"/><path d="M309.3438,165.6719 C308.4063,165.2344 307.8125,165.0938 306.9375,165.0938 C304.3125,165.0938 302.3125,167.1719 302.3125,169.8906 L302.3125,171.0156 C302.3125,173.5938 304.4219,175.4844 307.3125,175.4844 C308.5313,175.4844 309.6875,175.1875 310.4375,174.6406 C311.0156,174.2344 311.3438,173.7813 311.3438,173.3906 C311.3438,172.9375 310.9531,172.5469 310.4844,172.5469 C310.2656,172.5469 310.0625,172.625 309.875,172.8125 C309.4219,173.2969 309.4219,173.2969 309.2344,173.3906 C308.8125,173.6563 308.125,173.7813 307.3594,173.7813 C305.3125,173.7813 304.0156,172.6875 304.0156,170.9844 L304.0156,169.8906 C304.0156,168.1094 305.2656,166.7969 307,166.7969 C307.5781,166.7969 308.1875,166.9531 308.6563,167.2031 C309.1406,167.4844 309.3125,167.7031 309.4063,168.1094 C309.4688,168.5156 309.5,168.6406 309.6406,168.7656 C309.7813,168.9063 310.0156,169.0156 310.2344,169.0156 C310.5,169.0156 310.7656,168.875 310.9375,168.6563 C311.0469,168.5 311.0781,168.3125 311.0781,167.8906 L311.0781,166.4688 C311.0781,166.0313 311.0625,165.9063 310.9688,165.75 C310.8125,165.4844 310.5313,165.3438 310.2344,165.3438 C309.9375,165.3438 309.7344,165.4375 309.5156,165.75 L309.3438,165.6719 Z "/><text fill="#000000" font-family="sans-serif" font-size="12" lengthAdjust="spacingAndGlyphs" textLength="109" x="321" y="174.1543">PropuestaAgregar</text><line style="stroke: #A80036; stroke-width: 1.5;" x1="293" x2="432" y1="186" y2="186"/><text fill="#000000" font-family="sans-serif" font-size="11" lengthAdjust="spacingAndGlyphs" textLength="40" x="298" y="200.2104">prenda</text><line style="stroke: #A80036; stroke-width: 1.5;" x1="293" x2="432" y1="206.8047" y2="206.8047"/><text fill="#000000" font-family="sans-serif" font-size="11" lengthAdjust="spacingAndGlyphs" textLength="107" x="298" y="221.0151">aceptarPropuesta()</text><text fill="#000000" font-family="sans-serif" font-size="11" lengthAdjust="spacingAndGlyphs" textLength="114" x="298" y="233.8198">rechazarPropuesta()</text><text fill="#000000" font-family="sans-serif" font-size="11" lengthAdjust="spacingAndGlyphs" textLength="117" x="298" y="246.6245">deshacerPropuesta()</text><!--MD5=[8d8c1f39b5f3ae89e4e4ef5caeb4cd66]
class PropuestaQuitar--><rect fill="#FEFECE" filter="url(#f1f6usix6pq4cv)" height="99.2188" id="PropuestaQuitar" style="stroke: #A80036; stroke-width: 1.5;" width="129" x="6" y="154"/><ellipse cx="21.45" cy="170" fill="#ADD1B2" rx="11" ry="11" style="stroke: #A80036; stroke-width: 1.0;"/><path d="M23.7938,165.6719 C22.8563,165.2344 22.2625,165.0938 21.3875,165.0938 C18.7625,165.0938 16.7625,167.1719 16.7625,169.8906 L16.7625,171.0156 C16.7625,173.5938 18.8719,175.4844 21.7625,175.4844 C22.9813,175.4844 24.1375,175.1875 24.8875,174.6406 C25.4656,174.2344 25.7938,173.7813 25.7938,173.3906 C25.7938,172.9375 25.4031,172.5469 24.9344,172.5469 C24.7156,172.5469 24.5125,172.625 24.325,172.8125 C23.8719,173.2969 23.8719,173.2969 23.6844,173.3906 C23.2625,173.6563 22.575,173.7813 21.8094,173.7813 C19.7625,173.7813 18.4656,172.6875 18.4656,170.9844 L18.4656,169.8906 C18.4656,168.1094 19.7156,166.7969 21.45,166.7969 C22.0281,166.7969 22.6375,166.9531 23.1063,167.2031 C23.5906,167.4844 23.7625,167.7031 23.8563,168.1094 C23.9188,168.5156 23.95,168.6406 24.0906,168.7656 C24.2313,168.9063 24.4656,169.0156 24.6844,169.0156 C24.95,169.0156 25.2156,168.875 25.3875,168.6563 C25.4969,168.5 25.5281,168.3125 25.5281,167.8906 L25.5281,166.4688 C25.5281,166.0313 25.5125,165.9063 25.4188,165.75 C25.2625,165.4844 24.9813,165.3438 24.6844,165.3438 C24.3875,165.3438 24.1844,165.4375 23.9656,165.75 L23.7938,165.6719 Z "/><text fill="#000000" font-family="sans-serif" font-size="12" lengthAdjust="spacingAndGlyphs" textLength="96" x="35.55" y="174.1543">PropuestaQuitar</text><line style="stroke: #A80036; stroke-width: 1.5;" x1="7" x2="134" y1="186" y2="186"/><text fill="#000000" font-family="sans-serif" font-size="11" lengthAdjust="spacingAndGlyphs" textLength="40" x="12" y="200.2104">prenda</text><line style="stroke: #A80036; stroke-width: 1.5;" x1="7" x2="134" y1="206.8047" y2="206.8047"/><text fill="#000000" font-family="sans-serif" font-size="11" lengthAdjust="spacingAndGlyphs" textLength="107" x="12" y="221.0151">aceptarPropuesta()</text><text fill="#000000" font-family="sans-serif" font-size="11" lengthAdjust="spacingAndGlyphs" textLength="114" x="12" y="233.8198">rechazarPropuesta()</text><text fill="#000000" font-family="sans-serif" font-size="11" lengthAdjust="spacingAndGlyphs" textLength="117" x="12" y="246.6245">deshacerPropuesta()</text><!--MD5=[bc7086c27e2a33410abf6cb16ae33c13]
link Usuario to Guardarropas--><path d="M213.5,234.104 C213.5,255.751 213.5,285.178 213.5,307.908 " fill="none" id="Usuario-&gt;Guardarropas" style="stroke: #A80036; stroke-width: 1.0;"/><polygon fill="#A80036" points="213.5,312.944,217.5,303.944,213.5,307.944,209.5,303.944,213.5,312.944" style="stroke: #A80036; stroke-width: 1.0;"/><text fill="#000000" font-family="sans-serif" font-size="13" lengthAdjust="spacingAndGlyphs" textLength="7" x="205.7344" y="301.722">*</text><!--MD5=[f345c237a6be9728b0b508e5a7657b0b]
link Guardarropas to Prenda--><path d="M213.5,374.09 C213.5,389.789 213.5,409.674 213.5,428.471 " fill="none" id="Guardarropas-&gt;Prenda" style="stroke: #A80036; stroke-width: 1.0;"/><polygon fill="#A80036" points="213.5,433.739,217.5,424.739,213.5,428.739,209.5,424.739,213.5,433.739" style="stroke: #A80036; stroke-width: 1.0;"/><text fill="#000000" font-family="sans-serif" font-size="13" lengthAdjust="spacingAndGlyphs" textLength="7" x="206.0734" y="423.0417">*</text><!--MD5=[f5d76671badcaceeb711b282de65666b]
reverse link Propuesta to PropuestaAgregar--><path d="M271.544,108.74 C285.952,123.593 301.355,139.47 315.313,153.859 " fill="none" id="Propuesta&lt;-PropuestaAgregar" style="stroke: #A80036; stroke-width: 1.0; stroke-dasharray: 7.0,7.0;"/><polygon fill="none" points="266.459,113.552,257.558,94.323,276.508,103.804,266.459,113.552" style="stroke: #A80036; stroke-width: 1.0;"/><!--MD5=[b04010e4bbf59bc2a84a0f98cb487580]
reverse link Propuesta to PropuestaQuitar--><path d="M161.456,108.74 C147.048,123.593 131.645,139.47 117.687,153.859 " fill="none" id="Propuesta&lt;-PropuestaQuitar" style="stroke: #A80036; stroke-width: 1.0; stroke-dasharray: 7.0,7.0;"/><polygon fill="none" points="156.492,103.804,175.442,94.323,166.541,113.552,156.492,103.804" style="stroke: #A80036; stroke-width: 1.0;"/><!--MD5=[89d3721ba91c017b4a6a6ec3521dff63]
link PropuestaAgregar to Guardarropas--><path d="M309.968,253.154 C290.027,271.622 267.78,292.227 249.68,308.991 " fill="none" id="PropuestaAgregar-&gt;Guardarropas" style="stroke: #A80036; stroke-width: 1.0;"/><polygon fill="#A80036" points="245.647,312.726,254.9683,309.5459,249.3156,309.3288,249.5328,303.6761,245.647,312.726" style="stroke: #A80036; stroke-width: 1.0;"/><!--MD5=[fb9fb7f118b3304d560f32630563a312]
link PropuestaAgregar to Prenda--><path d="M343.687,253.368 C329.831,287.79 309.769,334.579 288.5,374 C278.484,392.565 266.429,412.038 254.943,429.572 " fill="none" id="PropuestaAgregar-&gt;Prenda" style="stroke: #A80036; stroke-width: 1.0;"/><polygon fill="#A80036" points="252.037,433.986,260.3277,428.6696,254.7871,429.8102,253.6465,424.2695,252.037,433.986" style="stroke: #A80036; stroke-width: 1.0;"/><!--MD5=[eb28db68c7dde5a16e65bf44c9ca547d]
link PropuestaQuitar to Guardarropas--><path d="M120.916,253.154 C140.054,271.622 161.405,292.227 178.777,308.991 " fill="none" id="PropuestaQuitar-&gt;Guardarropas" style="stroke: #A80036; stroke-width: 1.0;"/><polygon fill="#A80036" points="182.647,312.726,178.9504,303.5972,179.0499,309.2532,173.3939,309.3526,182.647,312.726" style="stroke: #A80036; stroke-width: 1.0;"/><!--MD5=[cca804f2417cef0f1ffcabe7156b42e6]
link PropuestaQuitar to Prenda--><path d="M87.1135,253.111 C99.5969,287.62 118.013,334.621 138.5,374 C148.185,392.616 160.079,412.029 171.517,429.489 " fill="none" id="PropuestaQuitar-&gt;Prenda" style="stroke: #A80036; stroke-width: 1.0;"/><polygon fill="#A80036" points="174.413,433.884,172.7997,424.1682,171.6613,429.7093,166.1202,428.5709,174.413,433.884" style="stroke: #A80036; stroke-width: 1.0;"/><!--MD5=[eca8f425d58e78f031b0ef7ee51ae7e5]
@startuml
class Prenda {
  tipo
  material
  color
  colorSecundario
  temperaturaMaxima
}

class Usuario {
  guardarropas
}

class Guardarropas {
  prendas
}

interface Propuesta {
  aceptarPropuesta()
  rechazarPropuesta()
  deshacerPropuesta()
}

class PropuestaAgregar {
  prenda
  aceptarPropuesta()
  rechazarPropuesta()
  deshacerPropuesta()
}

class PropuestaQuitar {
  prenda
  aceptarPropuesta()
  rechazarPropuesta()
  deshacerPropuesta()
}

Usuario - -> "*"Guardarropas
Guardarropas - -> "*"Prenda
Propuesta <|.. PropuestaAgregar
Propuesta <|.. PropuestaQuitar
PropuestaAgregar - -> Guardarropas
PropuestaAgregar - -> Prenda
PropuestaQuitar - -> Guardarropas
PropuestaQuitar - -> Prenda
@enduml

PlantUML version 1.2020.11(Sat May 30 10:13:43 UTC 2020)
(GPL source distribution)
Java Runtime: Java(TM) SE Runtime Environment
JVM: Java HotSpot(TM) 64-Bit Server VM
Default Encoding: UTF-8
Language: en
Country: US
--></g></svg>