<?xml version="1.0" encoding="UTF-8" standalone="no"?><svg xmlns="http://www.w3.org/2000/svg" xmlns:xlink="http://www.w3.org/1999/xlink" contentScriptType="application/ecmascript" contentStyleType="text/css" height="690px" preserveAspectRatio="none" style="width:482px;height:690px;" version="1.1" viewBox="0 0 482 690" width="482px" zoomAndPan="magnify"><defs><filter height="300%" id="f1r2w0t1m5a6wc" width="300%" x="-1" y="-1"><feGaussianBlur result="blurOut" stdDeviation="2.0"/><feColorMatrix in="blurOut" result="blurOut2" type="matrix" values="0 0 0 0 0 0 0 0 0 0 0 0 0 0 0 0 0 0 .4 0"/><feOffset dx="4.0" dy="4.0" in="blurOut2" result="blurOut3"/><feBlend in="SourceGraphic" in2="blurOut3" mode="normal"/></filter></defs><g><!--MD5=[6e24cbd34338354a19670a98562d5947]
class Atuendo--><rect fill="#FEFECE" filter="url(#f1r2w0t1m5a6wc)" height="99.2188" id="Atuendo" style="stroke: #A80036; stroke-width: 1.5;" width="82" x="42.5" y="154"/><ellipse cx="57.5" cy="170" fill="#ADD1B2" rx="11" ry="11" style="stroke: #A80036; stroke-width: 1.0;"/><path d="M59.8438,165.6719 C58.9063,165.2344 58.3125,165.0938 57.4375,165.0938 C54.8125,165.0938 52.8125,167.1719 52.8125,169.8906 L52.8125,171.0156 C52.8125,173.5938 54.9219,175.4844 57.8125,175.4844 C59.0313,175.4844 60.1875,175.1875 60.9375,174.6406 C61.5156,174.2344 61.8438,173.7813 61.8438,173.3906 C61.8438,172.9375 61.4531,172.5469 60.9844,172.5469 C60.7656,172.5469 60.5625,172.625 60.375,172.8125 C59.9219,173.2969 59.9219,173.2969 59.7344,173.3906 C59.3125,173.6563 58.625,173.7813 57.8594,173.7813 C55.8125,173.7813 54.5156,172.6875 54.5156,170.9844 L54.5156,169.8906 C54.5156,168.1094 55.7656,166.7969 57.5,166.7969 C58.0781,166.7969 58.6875,166.9531 59.1563,167.2031 C59.6406,167.4844 59.8125,167.7031 59.9063,168.1094 C59.9688,168.5156 60,168.6406 60.1406,168.7656 C60.2813,168.9063 60.5156,169.0156 60.7344,169.0156 C61,169.0156 61.2656,168.875 61.4375,168.6563 C61.5469,168.5 61.5781,168.3125 61.5781,167.8906 L61.5781,166.4688 C61.5781,166.0313 61.5625,165.9063 61.4688,165.75 C61.3125,165.4844 61.0313,165.3438 60.7344,165.3438 C60.4375,165.3438 60.2344,165.4375 60.0156,165.75 L59.8438,165.6719 Z "/><text fill="#000000" font-family="sans-serif" font-size="12" lengthAdjust="spacingAndGlyphs" textLength="50" x="71.5" y="174.1543">Atuendo</text><line style="stroke: #A80036; stroke-width: 1.5;" x1="43.5" x2="123.5" y1="186" y2="186"/><text fill="#000000" font-family="sans-serif" font-size="11" lengthAdjust="spacingAndGlyphs" textLength="46" x="48.5" y="200.2104">superior</text><text fill="#000000" font-family="sans-serif" font-size="11" lengthAdjust="spacingAndGlyphs" textLength="40" x="48.5" y="213.0151">inferior</text><text fill="#000000" font-family="sans-serif" font-size="11" lengthAdjust="spacingAndGlyphs" textLength="44" x="48.5" y="225.8198">calzado</text><text fill="#000000" font-family="sans-serif" font-size="11" lengthAdjust="spacingAndGlyphs" textLength="60" x="48.5" y="238.6245">accesorios</text><line style="stroke: #A80036; stroke-width: 1.5;" x1="43.5" x2="123.5" y1="245.2188" y2="245.2188"/><!--MD5=[3745fdd22a0e66a0d468b66995ac78bf]
class AccuWeatherAPI--><rect fill="#FEFECE" filter="url(#f1r2w0t1m5a6wc)" height="60.8047" id="AccuWeatherAPI" style="stroke: #A80036; stroke-width: 1.5;" width="129" x="310" y="619"/><ellipse cx="325" cy="635" fill="#ADD1B2" rx="11" ry="11" style="stroke: #A80036; stroke-width: 1.0;"/><path d="M327.3438,630.6719 C326.4063,630.2344 325.8125,630.0938 324.9375,630.0938 C322.3125,630.0938 320.3125,632.1719 320.3125,634.8906 L320.3125,636.0156 C320.3125,638.5938 322.4219,640.4844 325.3125,640.4844 C326.5313,640.4844 327.6875,640.1875 328.4375,639.6406 C329.0156,639.2344 329.3438,638.7813 329.3438,638.3906 C329.3438,637.9375 328.9531,637.5469 328.4844,637.5469 C328.2656,637.5469 328.0625,637.625 327.875,637.8125 C327.4219,638.2969 327.4219,638.2969 327.2344,638.3906 C326.8125,638.6563 326.125,638.7813 325.3594,638.7813 C323.3125,638.7813 322.0156,637.6875 322.0156,635.9844 L322.0156,634.8906 C322.0156,633.1094 323.2656,631.7969 325,631.7969 C325.5781,631.7969 326.1875,631.9531 326.6563,632.2031 C327.1406,632.4844 327.3125,632.7031 327.4063,633.1094 C327.4688,633.5156 327.5,633.6406 327.6406,633.7656 C327.7813,633.9063 328.0156,634.0156 328.2344,634.0156 C328.5,634.0156 328.7656,633.875 328.9375,633.6563 C329.0469,633.5 329.0781,633.3125 329.0781,632.8906 L329.0781,631.4688 C329.0781,631.0313 329.0625,630.9063 328.9688,630.75 C328.8125,630.4844 328.5313,630.3438 328.2344,630.3438 C327.9375,630.3438 327.7344,630.4375 327.5156,630.75 L327.3438,630.6719 Z "/><text fill="#000000" font-family="sans-serif" font-size="12" lengthAdjust="spacingAndGlyphs" textLength="97" x="339" y="639.1543">AccuWeatherAPI</text><line style="stroke: #A80036; stroke-width: 1.5;" x1="311" x2="438" y1="651" y2="651"/><line style="stroke: #A80036; stroke-width: 1.5;" x1="311" x2="438" y1="659" y2="659"/><text fill="#000000" font-family="sans-serif" font-size="11" lengthAdjust="spacingAndGlyphs" textLength="76" x="316" y="673.2104">getWeather()</text><!--MD5=[ec0e205da147a72fbc9fb1afaf8d7312]
class Clima--><rect fill="#FEFECE" filter="url(#f1r2w0t1m5a6wc)" height="86.4141" id="Clima" style="stroke: #A80036; stroke-width: 1.5;" width="114" x="168.5" y="326"/><ellipse cx="206" cy="342" fill="#ADD1B2" rx="11" ry="11" style="stroke: #A80036; stroke-width: 1.0;"/><path d="M208.3438,337.6719 C207.4063,337.2344 206.8125,337.0938 205.9375,337.0938 C203.3125,337.0938 201.3125,339.1719 201.3125,341.8906 L201.3125,343.0156 C201.3125,345.5938 203.4219,347.4844 206.3125,347.4844 C207.5313,347.4844 208.6875,347.1875 209.4375,346.6406 C210.0156,346.2344 210.3438,345.7813 210.3438,345.3906 C210.3438,344.9375 209.9531,344.5469 209.4844,344.5469 C209.2656,344.5469 209.0625,344.625 208.875,344.8125 C208.4219,345.2969 208.4219,345.2969 208.2344,345.3906 C207.8125,345.6563 207.125,345.7813 206.3594,345.7813 C204.3125,345.7813 203.0156,344.6875 203.0156,342.9844 L203.0156,341.8906 C203.0156,340.1094 204.2656,338.7969 206,338.7969 C206.5781,338.7969 207.1875,338.9531 207.6563,339.2031 C208.1406,339.4844 208.3125,339.7031 208.4063,340.1094 C208.4688,340.5156 208.5,340.6406 208.6406,340.7656 C208.7813,340.9063 209.0156,341.0156 209.2344,341.0156 C209.5,341.0156 209.7656,340.875 209.9375,340.6563 C210.0469,340.5 210.0781,340.3125 210.0781,339.8906 L210.0781,338.4688 C210.0781,338.0313 210.0625,337.9063 209.9688,337.75 C209.8125,337.4844 209.5313,337.3438 209.2344,337.3438 C208.9375,337.3438 208.7344,337.4375 208.5156,337.75 L208.3438,337.6719 Z "/><text fill="#000000" font-family="sans-serif" font-size="12" lengthAdjust="spacingAndGlyphs" textLength="32" x="225" y="346.1543">Clima</text><line style="stroke: #A80036; stroke-width: 1.5;" x1="169.5" x2="281.5" y1="358" y2="358"/><text fill="#000000" font-family="sans-serif" font-size="11" lengthAdjust="spacingAndGlyphs" textLength="71" x="174.5" y="372.2104">temperatura</text><text fill="#000000" font-family="sans-serif" font-size="11" lengthAdjust="spacingAndGlyphs" textLength="102" x="174.5" y="385.0151">probabilidadLluvia</text><text fill="#000000" font-family="sans-serif" font-size="11" lengthAdjust="spacingAndGlyphs" textLength="9" x="174.5" y="397.8198">...</text><line style="stroke: #A80036; stroke-width: 1.5;" x1="169.5" x2="281.5" y1="404.4141" y2="404.4141"/><!--MD5=[e73183ae97ca62d81f0bf19921e7c95e]
class Prenda--><rect fill="#FEFECE" filter="url(#f1r2w0t1m5a6wc)" height="112.0234" id="Prenda" style="stroke: #A80036; stroke-width: 1.5;" width="127" x="6" y="313"/><ellipse cx="45.3" cy="329" fill="#ADD1B2" rx="11" ry="11" style="stroke: #A80036; stroke-width: 1.0;"/><path d="M47.6438,324.6719 C46.7063,324.2344 46.1125,324.0938 45.2375,324.0938 C42.6125,324.0938 40.6125,326.1719 40.6125,328.8906 L40.6125,330.0156 C40.6125,332.5938 42.7219,334.4844 45.6125,334.4844 C46.8313,334.4844 47.9875,334.1875 48.7375,333.6406 C49.3156,333.2344 49.6438,332.7813 49.6438,332.3906 C49.6438,331.9375 49.2531,331.5469 48.7844,331.5469 C48.5656,331.5469 48.3625,331.625 48.175,331.8125 C47.7219,332.2969 47.7219,332.2969 47.5344,332.3906 C47.1125,332.6563 46.425,332.7813 45.6594,332.7813 C43.6125,332.7813 42.3156,331.6875 42.3156,329.9844 L42.3156,328.8906 C42.3156,327.1094 43.5656,325.7969 45.3,325.7969 C45.8781,325.7969 46.4875,325.9531 46.9563,326.2031 C47.4406,326.4844 47.6125,326.7031 47.7063,327.1094 C47.7688,327.5156 47.8,327.6406 47.9406,327.7656 C48.0813,327.9063 48.3156,328.0156 48.5344,328.0156 C48.8,328.0156 49.0656,327.875 49.2375,327.6563 C49.3469,327.5 49.3781,327.3125 49.3781,326.8906 L49.3781,325.4688 C49.3781,325.0313 49.3625,324.9063 49.2688,324.75 C49.1125,324.4844 48.8313,324.3438 48.5344,324.3438 C48.2375,324.3438 48.0344,324.4375 47.8156,324.75 L47.6438,324.6719 Z "/><text fill="#000000" font-family="sans-serif" font-size="12" lengthAdjust="spacingAndGlyphs" textLength="41" x="64.7" y="333.1543">Prenda</text><line style="stroke: #A80036; stroke-width: 1.5;" x1="7" x2="132" y1="345" y2="345"/><text fill="#000000" font-family="sans-serif" font-size="11" lengthAdjust="spacingAndGlyphs" textLength="21" x="12" y="359.2104">tipo</text><text fill="#000000" font-family="sans-serif" font-size="11" lengthAdjust="spacingAndGlyphs" textLength="47" x="12" y="372.0151">material</text><text fill="#000000" font-family="sans-serif" font-size="11" lengthAdjust="spacingAndGlyphs" textLength="27" x="12" y="384.8198">color</text><text fill="#000000" font-family="sans-serif" font-size="11" lengthAdjust="spacingAndGlyphs" textLength="91" x="12" y="397.6245">colorSecundario</text><text fill="#000000" font-family="sans-serif" font-size="11" lengthAdjust="spacingAndGlyphs" textLength="115" x="12" y="410.4292">temperaturaMaxima</text><line style="stroke: #A80036; stroke-width: 1.5;" x1="7" x2="132" y1="417.0234" y2="417.0234"/><!--MD5=[bac0c5bf649e986a87f1811f4bfe8c22]
class Ciudad--><rect fill="#FEFECE" filter="url(#f1r2w0t1m5a6wc)" height="86.4141" id="Ciudad" style="stroke: #A80036; stroke-width: 1.5;" width="103" x="174" y="160.5"/><ellipse cx="202.5" cy="176.5" fill="#ADD1B2" rx="11" ry="11" style="stroke: #A80036; stroke-width: 1.0;"/><path d="M204.8438,172.1719 C203.9063,171.7344 203.3125,171.5938 202.4375,171.5938 C199.8125,171.5938 197.8125,173.6719 197.8125,176.3906 L197.8125,177.5156 C197.8125,180.0938 199.9219,181.9844 202.8125,181.9844 C204.0313,181.9844 205.1875,181.6875 205.9375,181.1406 C206.5156,180.7344 206.8438,180.2813 206.8438,179.8906 C206.8438,179.4375 206.4531,179.0469 205.9844,179.0469 C205.7656,179.0469 205.5625,179.125 205.375,179.3125 C204.9219,179.7969 204.9219,179.7969 204.7344,179.8906 C204.3125,180.1563 203.625,180.2813 202.8594,180.2813 C200.8125,180.2813 199.5156,179.1875 199.5156,177.4844 L199.5156,176.3906 C199.5156,174.6094 200.7656,173.2969 202.5,173.2969 C203.0781,173.2969 203.6875,173.4531 204.1563,173.7031 C204.6406,173.9844 204.8125,174.2031 204.9063,174.6094 C204.9688,175.0156 205,175.1406 205.1406,175.2656 C205.2813,175.4063 205.5156,175.5156 205.7344,175.5156 C206,175.5156 206.2656,175.375 206.4375,175.1563 C206.5469,175 206.5781,174.8125 206.5781,174.3906 L206.5781,172.9688 C206.5781,172.5313 206.5625,172.4063 206.4688,172.25 C206.3125,171.9844 206.0313,171.8438 205.7344,171.8438 C205.4375,171.8438 205.2344,171.9375 205.0156,172.25 L204.8438,172.1719 Z "/><text fill="#000000" font-family="sans-serif" font-size="12" lengthAdjust="spacingAndGlyphs" textLength="41" x="219.5" y="180.6543">Ciudad</text><line style="stroke: #A80036; stroke-width: 1.5;" x1="175" x2="276" y1="192.5" y2="192.5"/><text fill="#000000" font-family="sans-serif" font-size="11" lengthAdjust="spacingAndGlyphs" textLength="44" x="180" y="206.7104">nombre</text><text fill="#000000" font-family="sans-serif" font-size="11" lengthAdjust="spacingAndGlyphs" textLength="30" x="180" y="219.5151">clima</text><text fill="#000000" font-family="sans-serif" font-size="11" lengthAdjust="spacingAndGlyphs" textLength="91" x="180" y="232.3198">proveedorClima</text><line style="stroke: #A80036; stroke-width: 1.5;" x1="175" x2="276" y1="238.9141" y2="238.9141"/><!--MD5=[84129e4728ac12c1b84d020e1856fc95]
class ClimaProvider--><rect fill="#FEFECE" filter="url(#f1r2w0t1m5a6wc)" height="60.8047" id="ClimaProvider" style="stroke: #A80036; stroke-width: 1.5;" width="114" x="317.5" y="338.5"/><ellipse cx="332.5" cy="354.5" fill="#B4A7E5" rx="11" ry="11" style="stroke: #A80036; stroke-width: 1.0;"/><path d="M333.4531,351.2813 L335.1719,351.2813 C335.5625,351.2813 335.75,351.25 335.875,351.1719 C336.1406,351.0156 336.2813,350.7344 336.2813,350.4375 C336.2813,350.1719 336.1719,349.9063 335.9375,349.7344 C335.7656,349.625 335.625,349.5938 335.1719,349.5938 L330.0313,349.5938 C329.5938,349.5938 329.4688,349.6094 329.3125,349.7031 C329.0625,349.8594 328.9063,350.1563 328.9063,350.4375 C328.9063,350.7188 329.0469,350.9688 329.2656,351.1406 C329.4219,351.25 329.6094,351.2813 330.0313,351.2813 L331.75,351.2813 L331.75,357.7969 L330.0313,357.7969 C329.5938,357.7969 329.4688,357.8125 329.3125,357.9219 C329.0625,358.0781 328.9063,358.3594 328.9063,358.6563 C328.9063,358.9063 329.0469,359.1719 329.2656,359.3281 C329.4219,359.4531 329.625,359.5 330.0313,359.5 L335.1719,359.5 C335.9219,359.5 336.2813,359.2188 336.2813,358.6563 C336.2813,358.375 336.1719,358.125 335.9375,357.9531 C335.7656,357.8281 335.625,357.7969 335.1719,357.7969 L333.4531,357.7969 L333.4531,351.2813 Z "/><text fill="#000000" font-family="sans-serif" font-size="12" font-style="italic" lengthAdjust="spacingAndGlyphs" textLength="82" x="346.5" y="358.6543">ClimaProvider</text><line style="stroke: #A80036; stroke-width: 1.5;" x1="318.5" x2="430.5" y1="370.5" y2="370.5"/><line style="stroke: #A80036; stroke-width: 1.5;" x1="318.5" x2="430.5" y1="378.5" y2="378.5"/><text fill="#000000" font-family="sans-serif" font-size="11" lengthAdjust="spacingAndGlyphs" textLength="59" x="323.5" y="392.7104">getClima()</text><!--MD5=[43510c689ee9bfc4b341395ee754c00d]
class ClimaProviderAccuWeather--><rect fill="#FEFECE" filter="url(#f1r2w0t1m5a6wc)" height="73.6094" id="ClimaProviderAccuWeather" style="stroke: #A80036; stroke-width: 1.5;" width="194" x="277.5" y="485"/><ellipse cx="292.5" cy="501" fill="#ADD1B2" rx="11" ry="11" style="stroke: #A80036; stroke-width: 1.0;"/><path d="M294.8438,496.6719 C293.9063,496.2344 293.3125,496.0938 292.4375,496.0938 C289.8125,496.0938 287.8125,498.1719 287.8125,500.8906 L287.8125,502.0156 C287.8125,504.5938 289.9219,506.4844 292.8125,506.4844 C294.0313,506.4844 295.1875,506.1875 295.9375,505.6406 C296.5156,505.2344 296.8438,504.7813 296.8438,504.3906 C296.8438,503.9375 296.4531,503.5469 295.9844,503.5469 C295.7656,503.5469 295.5625,503.625 295.375,503.8125 C294.9219,504.2969 294.9219,504.2969 294.7344,504.3906 C294.3125,504.6563 293.625,504.7813 292.8594,504.7813 C290.8125,504.7813 289.5156,503.6875 289.5156,501.9844 L289.5156,500.8906 C289.5156,499.1094 290.7656,497.7969 292.5,497.7969 C293.0781,497.7969 293.6875,497.9531 294.1563,498.2031 C294.6406,498.4844 294.8125,498.7031 294.9063,499.1094 C294.9688,499.5156 295,499.6406 295.1406,499.7656 C295.2813,499.9063 295.5156,500.0156 295.7344,500.0156 C296,500.0156 296.2656,499.875 296.4375,499.6563 C296.5469,499.5 296.5781,499.3125 296.5781,498.8906 L296.5781,497.4688 C296.5781,497.0313 296.5625,496.9063 296.4688,496.75 C296.3125,496.4844 296.0313,496.3438 295.7344,496.3438 C295.4375,496.3438 295.2344,496.4375 295.0156,496.75 L294.8438,496.6719 Z "/><text fill="#000000" font-family="sans-serif" font-size="12" lengthAdjust="spacingAndGlyphs" textLength="162" x="306.5" y="505.1543">ClimaProviderAccuWeather</text><line style="stroke: #A80036; stroke-width: 1.5;" x1="278.5" x2="470.5" y1="517" y2="517"/><text fill="#000000" font-family="sans-serif" font-size="11" lengthAdjust="spacingAndGlyphs" textLength="49" x="283.5" y="531.2104">apiClima</text><line style="stroke: #A80036; stroke-width: 1.5;" x1="278.5" x2="470.5" y1="537.8047" y2="537.8047"/><text fill="#000000" font-family="sans-serif" font-size="11" lengthAdjust="spacingAndGlyphs" textLength="59" x="283.5" y="552.0151">getClima()</text><!--MD5=[35a64b983c79880384a2fd9b61f0c24b]
class Usuario--><rect fill="#FEFECE" filter="url(#f1r2w0t1m5a6wc)" height="86.4141" id="Usuario" style="stroke: #A80036; stroke-width: 1.5;" width="199" x="55" y="8"/><ellipse cx="127.25" cy="24" fill="#ADD1B2" rx="11" ry="11" style="stroke: #A80036; stroke-width: 1.0;"/><path d="M129.5938,19.6719 C128.6563,19.2344 128.0625,19.0938 127.1875,19.0938 C124.5625,19.0938 122.5625,21.1719 122.5625,23.8906 L122.5625,25.0156 C122.5625,27.5938 124.6719,29.4844 127.5625,29.4844 C128.7813,29.4844 129.9375,29.1875 130.6875,28.6406 C131.2656,28.2344 131.5938,27.7813 131.5938,27.3906 C131.5938,26.9375 131.2031,26.5469 130.7344,26.5469 C130.5156,26.5469 130.3125,26.625 130.125,26.8125 C129.6719,27.2969 129.6719,27.2969 129.4844,27.3906 C129.0625,27.6563 128.375,27.7813 127.6094,27.7813 C125.5625,27.7813 124.2656,26.6875 124.2656,24.9844 L124.2656,23.8906 C124.2656,22.1094 125.5156,20.7969 127.25,20.7969 C127.8281,20.7969 128.4375,20.9531 128.9063,21.2031 C129.3906,21.4844 129.5625,21.7031 129.6563,22.1094 C129.7188,22.5156 129.75,22.6406 129.8906,22.7656 C130.0313,22.9063 130.2656,23.0156 130.4844,23.0156 C130.75,23.0156 131.0156,22.875 131.1875,22.6563 C131.2969,22.5 131.3281,22.3125 131.3281,21.8906 L131.3281,20.4688 C131.3281,20.0313 131.3125,19.9063 131.2188,19.75 C131.0625,19.4844 130.7813,19.3438 130.4844,19.3438 C130.1875,19.3438 129.9844,19.4375 129.7656,19.75 L129.5938,19.6719 Z "/><text fill="#000000" font-family="sans-serif" font-size="12" lengthAdjust="spacingAndGlyphs" textLength="46" x="147.75" y="28.1543">Usuario</text><line style="stroke: #A80036; stroke-width: 1.5;" x1="56" x2="253" y1="40" y2="40"/><text fill="#000000" font-family="sans-serif" font-size="11" lengthAdjust="spacingAndGlyphs" textLength="37" x="61" y="54.2104">ciudad</text><text fill="#000000" font-family="sans-serif" font-size="11" lengthAdjust="spacingAndGlyphs" textLength="74" x="61" y="67.0151">guardarropas</text><line style="stroke: #A80036; stroke-width: 1.5;" x1="56" x2="253" y1="73.6094" y2="73.6094"/><text fill="#000000" font-family="sans-serif" font-size="11" lengthAdjust="spacingAndGlyphs" textLength="187" x="61" y="87.8198">generarSugerenciaSegunClima()</text><!--MD5=[e46b771cce20028a9eb1baa1236a8450]
link Ciudad to ClimaProvider--><path d="M263.871,246.605 C288.753,273.908 320.728,308.996 343.898,334.42 " fill="none" id="Ciudad-&gt;ClimaProvider" style="stroke: #A80036; stroke-width: 1.0;"/><polygon fill="#A80036" points="347.539,338.415,344.4345,329.0682,344.1716,334.719,338.5208,334.4561,347.539,338.415" style="stroke: #A80036; stroke-width: 1.0;"/><!--MD5=[85805b06bc69b6e915b916118e9659d3]
reverse link ClimaProvider to ClimaProviderAccuWeather--><path d="M374.5,420.091 C374.5,441.262 374.5,465.451 374.5,484.838 " fill="none" id="ClimaProvider&lt;-ClimaProviderAccuWeather" style="stroke: #A80036; stroke-width: 1.0; stroke-dasharray: 7.0,7.0;"/><polygon fill="none" points="367.5,419.833,374.5,399.833,381.5,419.833,367.5,419.833" style="stroke: #A80036; stroke-width: 1.0;"/><!--MD5=[37ff9ae1b59d452248c686c8a4a7bcb1]
link Atuendo to Prenda--><path d="M79.3374,253.113 C77.8639,270.321 76.1885,289.888 74.6432,307.934 " fill="none" id="Atuendo-&gt;Prenda" style="stroke: #A80036; stroke-width: 1.0;"/><polygon fill="#A80036" points="74.2111,312.981,78.9653,304.3556,74.6382,307.9993,70.9946,303.6722,74.2111,312.981" style="stroke: #A80036; stroke-width: 1.0;"/><text fill="#000000" font-family="sans-serif" font-size="13" lengthAdjust="spacingAndGlyphs" textLength="7" x="67.3663" y="301.9165">*</text><!--MD5=[83566e9cdb8be5d70000036925f0f670]
link Usuario to Atuendo--><path d="M134.534,94.323 C126.48,111.395 117.097,131.283 108.59,149.317 " fill="none" id="Usuario-&gt;Atuendo" style="stroke: #A80036; stroke-width: 1.0;"/><polygon fill="#A80036" points="106.447,153.859,113.9044,147.4257,108.5802,149.3369,106.669,144.0126,106.447,153.859" style="stroke: #A80036; stroke-width: 1.0;"/><text fill="#000000" font-family="sans-serif" font-size="13" lengthAdjust="spacingAndGlyphs" textLength="7" x="102.1818" y="142.8844">*</text><!--MD5=[b96bd3e61892b106b58fc036075b7bee]
link Usuario to Ciudad--><path d="M174.466,94.323 C183.466,113.399 194.123,135.991 203.366,155.582 " fill="none" id="Usuario-&gt;Ciudad" style="stroke: #A80036; stroke-width: 1.0;"/><polygon fill="#A80036" points="205.683,160.495,205.4622,150.6486,203.5504,155.9726,198.2264,154.0608,205.683,160.495" style="stroke: #A80036; stroke-width: 1.0;"/><!--MD5=[6c06cbd25fa4b11e10b9019d83ce9d94]
link Ciudad to Clima--><path d="M225.5,246.605 C225.5,269.212 225.5,297.156 225.5,320.532 " fill="none" id="Ciudad-&gt;Clima" style="stroke: #A80036; stroke-width: 1.0;"/><polygon fill="#A80036" points="225.5,325.754,229.5,316.754,225.5,320.754,221.5,316.754,225.5,325.754" style="stroke: #A80036; stroke-width: 1.0;"/><!--MD5=[3bedbe391c72aa039035c8f33faedc2e]
link ClimaProviderAccuWeather to AccuWeatherAPI--><path d="M374.5,559.3 C374.5,576.357 374.5,596.6065 374.5,613.4971 " fill="none" id="ClimaProviderAccuWeather-&gt;AccuWeatherAPI" style="stroke: #A80036; stroke-width: 1.0;"/><polygon fill="#A80036" points="374.5,618.624,378.5,609.624,374.5,613.624,370.5,609.624,374.5,618.624" style="stroke: #A80036; stroke-width: 1.0;"/><!--MD5=[1a6841e0c6b3b69f1decd352d77cc242]
@startuml
class Atuendo {
  superior
  inferior
  calzado
  accesorios
}

class AccuWeatherAPI {
  getWeather()
}

class Clima {
  temperatura
  probabilidadLluvia
  ...
}

class Prenda {
  tipo
  material
  color
  colorSecundario
  temperaturaMaxima
}


class Ciudad {
  nombre
  clima
  proveedorClima
}

interface ClimaProvider {
  getClima()
}

class ClimaProviderAccuWeather {
  apiClima
  getClima()
}

class Usuario {
  ciudad
  guardarropas
  generarSugerenciaSegunClima()
}

Ciudad - -> ClimaProvider
ClimaProvider <|.. ClimaProviderAccuWeather
Atuendo - -> "*"Prenda
Usuario - -> "*"Atuendo
Usuario - -> Ciudad
Ciudad - -> Clima
ClimaProviderAccuWeather - -> AccuWeatherAPI
@enduml

PlantUML version 1.2020.10(Sun May 17 09:48:49 UTC 2020)
(GPL source distribution)
Java Runtime: Java(TM) SE Runtime Environment
JVM: Java HotSpot(TM) 64-Bit Server VM
Operating System: Linux
Default Encoding: UTF-8
Language: en
Country: US
--></g></svg>