<?xml version="1.0" encoding="UTF-8" standalone="no"?><svg xmlns="http://www.w3.org/2000/svg" xmlns:xlink="http://www.w3.org/1999/xlink" contentScriptType="application/ecmascript" contentStyleType="text/css" height="608px" preserveAspectRatio="none" style="width:349px;height:608px;" version="1.1" viewBox="0 0 349 608" width="349px" zoomAndPan="magnify"><defs><filter height="300%" id="fd0ut9xolzc64" width="300%" x="-1" y="-1"><feGaussianBlur result="blurOut" stdDeviation="2.0"/><feColorMatrix in="blurOut" result="blurOut2" type="matrix" values="0 0 0 0 0 0 0 0 0 0 0 0 0 0 0 0 0 0 .4 0"/><feOffset dx="4.0" dy="4.0" in="blurOut2" result="blurOut3"/><feBlend in="SourceGraphic" in2="blurOut3" mode="normal"/></filter></defs><g><!--MD5=[6e24cbd34338354a19670a98562d5947]
class Atuendo--><rect fill="#FEFECE" filter="url(#fd0ut9xolzc64)" height="99.2188" id="Atuendo" style="stroke: #A80036; stroke-width: 1.5;" width="85" x="112.5" y="8"/><ellipse cx="127.5" cy="24" fill="#ADD1B2" rx="11" ry="11" style="stroke: #A80036; stroke-width: 1.0;"/><path d="M130.4688,29.6406 Q129.8906,29.9375 129.25,30.0859 Q128.6094,30.2344 127.9063,30.2344 Q125.4063,30.2344 124.0859,28.5859 Q122.7656,26.9375 122.7656,23.8125 Q122.7656,20.6875 124.0859,19.0313 Q125.4063,17.375 127.9063,17.375 Q128.6094,17.375 129.2578,17.5313 Q129.9063,17.6875 130.4688,17.9844 L130.4688,20.7031 Q129.8438,20.125 129.25,19.8516 Q128.6563,19.5781 128.0313,19.5781 Q126.6875,19.5781 126,20.6484 Q125.3125,21.7188 125.3125,23.8125 Q125.3125,25.9063 126,26.9766 Q126.6875,28.0469 128.0313,28.0469 Q128.6563,28.0469 129.25,27.7734 Q129.8438,27.5 130.4688,26.9219 L130.4688,29.6406 Z "/><text fill="#000000" font-family="sans-serif" font-size="12" lengthAdjust="spacingAndGlyphs" textLength="53" x="141.5" y="28.1543">Atuendo</text><line style="stroke: #A80036; stroke-width: 1.5;" x1="113.5" x2="196.5" y1="40" y2="40"/><text fill="#000000" font-family="sans-serif" font-size="11" lengthAdjust="spacingAndGlyphs" textLength="48" x="118.5" y="54.2104">superior</text><text fill="#000000" font-family="sans-serif" font-size="11" lengthAdjust="spacingAndGlyphs" textLength="41" x="118.5" y="67.0151">inferior</text><text fill="#000000" font-family="sans-serif" font-size="11" lengthAdjust="spacingAndGlyphs" textLength="42" x="118.5" y="79.8198">calzado</text><text fill="#000000" font-family="sans-serif" font-size="11" lengthAdjust="spacingAndGlyphs" textLength="62" x="118.5" y="92.6245">accesorios</text><line style="stroke: #A80036; stroke-width: 1.5;" x1="113.5" x2="196.5" y1="99.2188" y2="99.2188"/><!--MD5=[6f7663d74ba1ee6dc70726c3694f7658]
class CategoriaPrenda--><rect fill="#FEFECE" filter="url(#fd0ut9xolzc64)" height="99.2188" id="CategoriaPrenda" style="stroke: #A80036; stroke-width: 1.5;" width="138" x="200" y="498"/><ellipse cx="215" cy="514" fill="#EB937F" rx="11" ry="11" style="stroke: #A80036; stroke-width: 1.0;"/><path d="M219.1094,520 L211.3906,520 L211.3906,507.6094 L219.1094,507.6094 L219.1094,509.7656 L213.8438,509.7656 L213.8438,512.4375 L218.6094,512.4375 L218.6094,514.5938 L213.8438,514.5938 L213.8438,517.8438 L219.1094,517.8438 L219.1094,520 Z "/><text fill="#000000" font-family="sans-serif" font-size="12" lengthAdjust="spacingAndGlyphs" textLength="106" x="229" y="518.1543">CategoriaPrenda</text><line style="stroke: #A80036; stroke-width: 1.5;" x1="201" x2="337" y1="530" y2="530"/><text fill="#000000" font-family="sans-serif" font-size="11" lengthAdjust="spacingAndGlyphs" textLength="56" x="206" y="544.2104">SUPERIOR</text><text fill="#000000" font-family="sans-serif" font-size="11" lengthAdjust="spacingAndGlyphs" textLength="50" x="206" y="557.0151">INFERIOR</text><text fill="#000000" font-family="sans-serif" font-size="11" lengthAdjust="spacingAndGlyphs" textLength="54" x="206" y="569.8198">CALZADO</text><text fill="#000000" font-family="sans-serif" font-size="11" lengthAdjust="spacingAndGlyphs" textLength="66" x="206" y="582.6245">ACCESORIO</text><line style="stroke: #A80036; stroke-width: 1.5;" x1="201" x2="337" y1="589.2188" y2="589.2188"/><!--MD5=[e73183ae97ca62d81f0bf19921e7c95e]
class Prenda--><rect fill="#FEFECE" filter="url(#fd0ut9xolzc64)" height="99.2188" id="Prenda" style="stroke: #A80036; stroke-width: 1.5;" width="104" x="103" y="167"/><ellipse cx="130.15" cy="183" fill="#ADD1B2" rx="11" ry="11" style="stroke: #A80036; stroke-width: 1.0;"/><path d="M133.1188,188.6406 Q132.5406,188.9375 131.9,189.0859 Q131.2594,189.2344 130.5563,189.2344 Q128.0563,189.2344 126.7359,187.5859 Q125.4156,185.9375 125.4156,182.8125 Q125.4156,179.6875 126.7359,178.0313 Q128.0563,176.375 130.5563,176.375 Q131.2594,176.375 131.9078,176.5313 Q132.5563,176.6875 133.1188,176.9844 L133.1188,179.7031 Q132.4938,179.125 131.9,178.8516 Q131.3063,178.5781 130.6813,178.5781 Q129.3375,178.5781 128.65,179.6484 Q127.9625,180.7188 127.9625,182.8125 Q127.9625,184.9063 128.65,185.9766 Q129.3375,187.0469 130.6813,187.0469 Q131.3063,187.0469 131.9,186.7734 Q132.4938,186.5 133.1188,185.9219 L133.1188,188.6406 Z "/><text fill="#000000" font-family="sans-serif" font-size="12" lengthAdjust="spacingAndGlyphs" textLength="45" x="146.85" y="187.1543">Prenda</text><line style="stroke: #A80036; stroke-width: 1.5;" x1="104" x2="206" y1="199" y2="199"/><text fill="#000000" font-family="sans-serif" font-size="11" lengthAdjust="spacingAndGlyphs" textLength="21" x="109" y="213.2104">tipo</text><text fill="#000000" font-family="sans-serif" font-size="11" lengthAdjust="spacingAndGlyphs" textLength="47" x="109" y="226.0151">material</text><text fill="#000000" font-family="sans-serif" font-size="11" lengthAdjust="spacingAndGlyphs" textLength="28" x="109" y="238.8198">color</text><text fill="#000000" font-family="sans-serif" font-size="11" lengthAdjust="spacingAndGlyphs" textLength="92" x="109" y="251.6245">colorSecundario</text><line style="stroke: #A80036; stroke-width: 1.5;" x1="104" x2="206" y1="258.2188" y2="258.2188"/><!--MD5=[90d32ccc189f11441a6ce7cbb63ad387]
class Material--><rect fill="#FEFECE" filter="url(#fd0ut9xolzc64)" height="99.2188" id="Material" style="stroke: #A80036; stroke-width: 1.5;" width="82" x="6" y="332.5"/><ellipse cx="21" cy="348.5" fill="#EB937F" rx="11" ry="11" style="stroke: #A80036; stroke-width: 1.0;"/><path d="M25.1094,354.5 L17.3906,354.5 L17.3906,342.1094 L25.1094,342.1094 L25.1094,344.2656 L19.8438,344.2656 L19.8438,346.9375 L24.6094,346.9375 L24.6094,349.0938 L19.8438,349.0938 L19.8438,352.3438 L25.1094,352.3438 L25.1094,354.5 Z "/><text fill="#000000" font-family="sans-serif" font-size="12" lengthAdjust="spacingAndGlyphs" textLength="50" x="35" y="352.6543">Material</text><line style="stroke: #A80036; stroke-width: 1.5;" x1="7" x2="87" y1="364.5" y2="364.5"/><text fill="#000000" font-family="sans-serif" font-size="11" lengthAdjust="spacingAndGlyphs" textLength="56" x="12" y="378.7104">ALGODON</text><text fill="#000000" font-family="sans-serif" font-size="11" lengthAdjust="spacingAndGlyphs" textLength="25" x="12" y="391.5151">JEAN</text><text fill="#000000" font-family="sans-serif" font-size="11" lengthAdjust="spacingAndGlyphs" textLength="39" x="12" y="404.3198">CUERO</text><text fill="#000000" font-family="sans-serif" font-size="11" lengthAdjust="spacingAndGlyphs" textLength="36" x="12" y="417.1245">METAL</text><line style="stroke: #A80036; stroke-width: 1.5;" x1="7" x2="87" y1="423.7188" y2="423.7188"/><!--MD5=[18eee71c88ab61f27581b8cbdd3ef5ee]
class Color--><rect fill="#FEFECE" filter="url(#fd0ut9xolzc64)" height="99.2188" id="Color" style="stroke: #A80036; stroke-width: 1.5;" width="64" x="123" y="332.5"/><ellipse cx="138" cy="348.5" fill="#EB937F" rx="11" ry="11" style="stroke: #A80036; stroke-width: 1.0;"/><path d="M142.1094,354.5 L134.3906,354.5 L134.3906,342.1094 L142.1094,342.1094 L142.1094,344.2656 L136.8438,344.2656 L136.8438,346.9375 L141.6094,346.9375 L141.6094,349.0938 L136.8438,349.0938 L136.8438,352.3438 L142.1094,352.3438 L142.1094,354.5 Z "/><text fill="#000000" font-family="sans-serif" font-size="12" lengthAdjust="spacingAndGlyphs" textLength="32" x="152" y="352.6543">Color</text><line style="stroke: #A80036; stroke-width: 1.5;" x1="124" x2="186" y1="364.5" y2="364.5"/><text fill="#000000" font-family="sans-serif" font-size="11" lengthAdjust="spacingAndGlyphs" textLength="28" x="129" y="378.7104">ROJO</text><text fill="#000000" font-family="sans-serif" font-size="11" lengthAdjust="spacingAndGlyphs" textLength="30" x="129" y="391.5151">AZUL</text><text fill="#000000" font-family="sans-serif" font-size="11" lengthAdjust="spacingAndGlyphs" textLength="36" x="129" y="404.3198">VERDE</text><text fill="#000000" font-family="sans-serif" font-size="11" lengthAdjust="spacingAndGlyphs" textLength="40" x="129" y="417.1245">NEGRO</text><line style="stroke: #A80036; stroke-width: 1.5;" x1="124" x2="186" y1="423.7188" y2="423.7188"/><!--MD5=[eb4e2a40f0d210208f14ea4a2d93f8ee]
class Tipo--><rect fill="#FEFECE" filter="url(#fd0ut9xolzc64)" height="112.0234" id="Tipo" style="stroke: #A80036; stroke-width: 1.5;" width="93" x="222.5" y="326"/><ellipse cx="253.25" cy="342" fill="#EB937F" rx="11" ry="11" style="stroke: #A80036; stroke-width: 1.0;"/><path d="M257.3594,348 L249.6406,348 L249.6406,335.6094 L257.3594,335.6094 L257.3594,337.7656 L252.0938,337.7656 L252.0938,340.4375 L256.8594,340.4375 L256.8594,342.5938 L252.0938,342.5938 L252.0938,345.8438 L257.3594,345.8438 L257.3594,348 Z "/><text fill="#000000" font-family="sans-serif" font-size="12" lengthAdjust="spacingAndGlyphs" textLength="26" x="270.75" y="346.1543">Tipo</text><line style="stroke: #A80036; stroke-width: 1.5;" x1="223.5" x2="314.5" y1="358" y2="358"/><text fill="#000000" font-family="sans-serif" font-size="11" lengthAdjust="spacingAndGlyphs" textLength="46" x="228.5" y="372.2104">ZAPATO</text><text fill="#000000" font-family="sans-serif" font-size="11" lengthAdjust="spacingAndGlyphs" textLength="42" x="228.5" y="385.0151">CAMISA</text><text fill="#000000" font-family="sans-serif" font-size="11" lengthAdjust="spacingAndGlyphs" textLength="59" x="228.5" y="397.8198">PANTALON</text><text fill="#000000" font-family="sans-serif" font-size="11" lengthAdjust="spacingAndGlyphs" textLength="58" x="228.5" y="410.6245">ANTEOJOS</text><line style="stroke: #A80036; stroke-width: 1.5;" x1="223.5" x2="314.5" y1="417.2188" y2="417.2188"/><text fill="#000000" font-family="sans-serif" font-size="11" lengthAdjust="spacingAndGlyphs" textLength="81" x="228.5" y="431.4292">getCategoria()</text><!--MD5=[37ff9ae1b59d452248c686c8a4a7bcb1]
link Atuendo to Prenda--><path d="M155,107.3723 C155,124.5396 155,143.8579 155,161.4163 " fill="none" id="Atuendo-&gt;Prenda" style="stroke: #A80036; stroke-width: 1.0;"/><polygon fill="#A80036" points="155,166.8046,159,157.8046,155,161.8046,151,157.8046,155,166.8046" style="stroke: #A80036; stroke-width: 1.0;"/><text fill="#000000" font-family="sans-serif" font-size="13" lengthAdjust="spacingAndGlyphs" textLength="7" x="147.5078" y="155.8223">*</text><!--MD5=[41b617dbe2da599883e0c523e8890ebf]
link Prenda to Tipo--><path d="M189.2038,266.1555 C201.1146,283.447 214.6154,303.0469 227.0796,321.1419 " fill="none" id="Prenda-&gt;Tipo" style="stroke: #A80036; stroke-width: 1.0;"/><polygon fill="#A80036" points="230.2246,325.7076,228.4132,316.0267,227.3882,321.59,221.825,320.5649,230.2246,325.7076" style="stroke: #A80036; stroke-width: 1.0;"/><!--MD5=[0cc917b95a34d168ede202862e7868e8]
link Prenda to Material--><path d="M122.5964,266.1555 C109.8349,285.7113 95.1468,308.2196 82.1314,328.1645 " fill="none" id="Prenda-&gt;Material" style="stroke: #A80036; stroke-width: 1.0;"/><polygon fill="#A80036" points="79.3807,332.3796,87.6491,327.0286,82.1133,328.1923,80.9495,322.6565,79.3807,332.3796" style="stroke: #A80036; stroke-width: 1.0;"/><!--MD5=[e7d431aeebff480bc36838e5189b8e95]
link Prenda to Color--><path d="M155,266.1555 C155,285.384 155,307.467 155,327.1609 " fill="none" id="Prenda-&gt;Color" style="stroke: #A80036; stroke-width: 1.0;"/><polygon fill="#A80036" points="155,332.3796,159,323.3796,155,327.3796,151,323.3796,155,332.3796" style="stroke: #A80036; stroke-width: 1.0;"/><!--MD5=[5b8e518dbd3d080b4036c812bc0958d6]
link Tipo to CategoriaPrenda--><path d="M269,438.0308 C269,455.6224 269,475.0187 269,492.5357 " fill="none" id="Tipo-&gt;CategoriaPrenda" style="stroke: #A80036; stroke-width: 1.0;"/><polygon fill="#A80036" points="269,497.9076,273,488.9076,269,492.9076,265,488.9076,269,497.9076" style="stroke: #A80036; stroke-width: 1.0;"/><!--MD5=[9777f6f93cbad6ade877d60779bea552]
@startuml
class Atuendo {
  superior
  inferior
  calzado
  accesorios
}

enum CategoriaPrenda {
    SUPERIOR
    INFERIOR
    CALZADO
    ACCESORIO
}

class Prenda {
  tipo
  material
  color
  colorSecundario
}

enum Material{
  ALGODON
  JEAN
  CUERO
  METAL
}
enum Color {
  ROJO
  AZUL
  VERDE
  NEGRO
}
enum Tipo {
  ZAPATO
  CAMISA
  PANTALON
  ANTEOJOS
  getCategoria()
}

Atuendo - -> "*"Prenda
Prenda - -> Tipo
Prenda - -> Material
Prenda - -> Color
Tipo - -> CategoriaPrenda
@enduml

PlantUML version 1.2019.12(Sun Nov 03 10:24:54 UTC 2019)
(GPL source distribution)
Java Runtime: OpenJDK Runtime Environment
JVM: OpenJDK 64-Bit Server VM
Java Version: 1.8.0_232-heroku-b09
Operating System: Linux
Default Encoding: UTF-8
Language: en
Country: US
--></g></svg>